<svg xmlns="http://www.w3.org/2000/svg" width="48" height="56.001" fill="#fff" viewBox="0 0 48 56.001">
  <g id="cloud-server-shield-protect-database" transform="translate(-8.092 -3.999)">
    <circle id="Ellipse_16" data-name="Ellipse 16" cx="1" cy="1" r="1" transform="translate(23.029 54)"/>
    <circle id="Ellipse_17" data-name="Ellipse 17" cx="1" cy="1" r="1" transform="translate(15 54)"/>
    <circle id="Ellipse_18" data-name="Ellipse 18" cx="1" cy="1" r="1" transform="translate(31.045 54)"/>
    <path id="Path_54" data-name="Path 54" d="M11,60H53.09V50H11Zm38.082-8h2v2h-2Zm0,4h2v2h-2Zm-6.013-4h2v2h-2Zm0,4h2v2h-2Zm-6.013-4h2v2h-2Zm0,4h2v2h-2Zm-5.011-4a3,3,0,1,1-3.006,3A3,3,0,0,1,32.045,52Zm-8.017,0a3,3,0,1,1-3.006,3A3,3,0,0,1,24.028,52Zm-8.017,0A3,3,0,1,1,13,55,3,3,0,0,1,16.011,52Z"/>
    <circle id="Ellipse_19" data-name="Ellipse 19" cx="1" cy="1" r="1" transform="translate(23.029 42)"/>
    <circle id="Ellipse_20" data-name="Ellipse 20" cx="1" cy="1" r="1" transform="translate(15 42)"/>
    <path id="Path_55" data-name="Path 55" d="M49.368,14.31a1.007,1.007,0,0,1-.691-.64,7.006,7.006,0,0,0-9.839-3.88,1,1,0,0,1-1.322-.38A11.009,11.009,0,0,0,17.177,13.2a1.01,1.01,0,0,1-.912.84A9,9,0,0,0,17.017,32h3.757a13.043,13.043,0,0,1-.751-4.31V19a.992.992,0,0,1,.661-.94l11.021-4a1,1,0,0,1,.681,0l11.021,4a.992.992,0,0,1,.661.94v8.69A13.043,13.043,0,0,1,43.316,32h3.757a8.99,8.99,0,0,0,2.294-17.69Z"/>
    <path id="Path_56" data-name="Path 56" d="M32,41.65l6.4-5.82A11.02,11.02,0,0,0,42,27.69V19.7L32,16.06,22,19.7v7.99a11.02,11.02,0,0,0,3.6,8.14ZM27.707,27.293,31,30.586l6.293-6.293,1.414,1.414-7,7a1,1,0,0,1-1.414,0l-4-4Z" transform="translate(0.045)"/>
    <path id="Path_57" data-name="Path 57" d="M32.717,43.74a1,1,0,0,1-1.343,0L25.04,38H11V48H53.09V38H39.05ZM16.011,46a3,3,0,1,1,3.006-3A3,3,0,0,1,16.011,46Zm8.017,0a3,3,0,1,1,3.006-3A3,3,0,0,1,24.028,46Zm25.054-6h2v2h-2Zm0,4h2v2h-2Zm-6.013-4h2v2h-2Zm0,4h2v2h-2ZM39.06,46h-2V44h2Z"/>
  </g>
</svg>
