<svg xmlns="http://www.w3.org/2000/svg" width="48" height="42" viewBox="0 0 48 42">
  <path id="laptop-code" style="fill: #fff;" d="M19.127,21.463a1.129,1.129,0,0,0,1.7,0l.848-.928a1.4,1.4,0,0,0,0-1.856L18.994,15.75l2.678-2.93a1.4,1.4,0,0,0,0-1.856l-.848-.928a1.129,1.129,0,0,0-1.7,0l-4.376,4.786a1.4,1.4,0,0,0,0,1.856Zm7.2-.927.848.928a1.129,1.129,0,0,0,1.7,0l4.375-4.786a1.4,1.4,0,0,0,0-1.856l-4.375-4.786a1.129,1.129,0,0,0-1.7,0l-.848.928a1.4,1.4,0,0,0,0,1.856l2.678,2.929-2.678,2.93a1.4,1.4,0,0,0,0,1.856ZM46.8,34.125H28.616A2.474,2.474,0,0,1,26.16,36.75H21.6a2.674,2.674,0,0,1-2.458-2.625H1.2A1.264,1.264,0,0,0,0,35.438V36.75A5.055,5.055,0,0,0,4.8,42H43.2A5.055,5.055,0,0,0,48,36.75V35.438A1.264,1.264,0,0,0,46.8,34.125ZM43.2,3.937A3.791,3.791,0,0,0,39.6,0H8.4A3.791,3.791,0,0,0,4.8,3.937V31.5H43.2ZM38.4,26.25H9.6v-21H38.4Z"/>
</svg>
