<svg xmlns="http://www.w3.org/2000/svg" width="48" height="42" viewBox="0 0 48 42">
  <path id="network-wired" style="fill: #fff;" d="M48,21.656V20.344a1.26,1.26,0,0,0-1.2-1.312h-21V15.75h5.4a2.52,2.52,0,0,0,2.4-2.625V2.625A2.52,2.52,0,0,0,31.2,0H16.8a2.52,2.52,0,0,0-2.4,2.625v10.5a2.52,2.52,0,0,0,2.4,2.625h5.4v3.281H1.2A1.26,1.26,0,0,0,0,20.344v1.313a1.26,1.26,0,0,0,1.2,1.313H9V26.25H4.8a2.52,2.52,0,0,0-2.4,2.625v10.5A2.52,2.52,0,0,0,4.8,42h12a2.52,2.52,0,0,0,2.4-2.625v-10.5a2.52,2.52,0,0,0-2.4-2.625H12.6V22.969H35.4V26.25H31.2a2.52,2.52,0,0,0-2.4,2.625v10.5A2.52,2.52,0,0,0,31.2,42h12a2.52,2.52,0,0,0,2.4-2.625v-10.5a2.52,2.52,0,0,0-2.4-2.625H39V22.969h7.8A1.26,1.26,0,0,0,48,21.656ZM19.2,10.5V5.25h9.6V10.5ZM14.4,36.75H7.2V31.5h7.2Zm26.4,0H33.6V31.5h7.2Z"/>
</svg>
