<svg xmlns="http://www.w3.org/2000/svg" width="48" height="42" viewBox="0 0 48 42">
  <path id="server" style="fill: #fff;" d="M45,44H3a3,3,0,0,1-3-3V35a3,3,0,0,1,3-3H45a3,3,0,0,1,3,3v6A3,3,0,0,1,45,44Zm-4.5-8.25A2.25,2.25,0,1,0,42.75,38,2.25,2.25,0,0,0,40.5,35.75Zm-6,0A2.25,2.25,0,1,0,36.75,38,2.25,2.25,0,0,0,34.5,35.75ZM45,59H3a3,3,0,0,1-3-3V50a3,3,0,0,1,3-3H45a3,3,0,0,1,3,3v6A3,3,0,0,1,45,59Zm-4.5-8.25A2.25,2.25,0,1,0,42.75,53,2.25,2.25,0,0,0,40.5,50.75Zm-6,0A2.25,2.25,0,1,0,36.75,53,2.25,2.25,0,0,0,34.5,50.75ZM45,74H3a3,3,0,0,1-3-3V65a3,3,0,0,1,3-3H45a3,3,0,0,1,3,3v6A3,3,0,0,1,45,74Zm-4.5-8.25A2.25,2.25,0,1,0,42.75,68,2.25,2.25,0,0,0,40.5,65.75Zm-6,0A2.25,2.25,0,1,0,36.75,68,2.25,2.25,0,0,0,34.5,65.75Z" transform="translate(0 -32)"/>
</svg>
